<svg viewBox="-2000 0 34000 10000" width="24000" height="10000" xmlns="http://www.w3.org/2000/svg">
	<g class="part_0">
		<path d="M -1400 9300 h 60 v -2880 h -60 v 2880 " />
	</g>
	<g class="part_1">
		<path d="M -1000 9300 h 90 v -240 h -90 v 240 " />
	</g>
	<g class="part_2">
		<path d="M -200 9300 h 90 v -240 h -90 v 240 " />
	</g>
	<g class="part_3">
		<path d="M 700 9300 h 90 v -240 h -90 v 240 " />
	</g>
	<g class="part_4">
		<path d="M 18100 5000 h 90 v -240 h -90 v 240 " />
	</g>
	<g class="part_5">
		<path d="M -600 9300 h 90 v -300 h -90 v 300 " />
	</g>
	<g class="part_6">
		<path d="M 300 9300 h 90 v -300 h -90 v 300 " />
	</g>
	<g class="part_7">
		<path d="M 5100 6500 h 90 v -300 h -90 v 300 " />
	</g>
	<g class="part_8">
		<path d="M 26200 5500 h 90 v -300 h -90 v 300 " />
	</g>
	<g class="part_9">
		<path d="M 1100 9300 h 90 v -210 h -90 v 210 " />
	</g>
	<g class="part_10">
		<path d="M 29000 5500 h 90 v -210 h -90 v 210 " />
	</g>
	<g class="part_11">
		<path d="M 1500 9300 h 90 v -210 h -90 v 210 " />
	</g>
	<g class="part_12">
		<path d="M 6300 0 h 90 v -210 h -90 v 210 " />
	</g>
	<g class="part_13">
		<path d="M 1900 9300 h 90 v -300 h -90 v 300 " />
	</g>
	<g class="part_14">
		<path d="M 4300 9300 h 90 v -300 h -90 v 300 " />
	</g>
	<g class="part_15">
		<path d="M 26600 5500 h 90 v -300 h -90 v 300 " />
	</g>
	<g class="part_16">
		<path d="M 2300 9300 h 90 v -210 h -90 v 210 " />
	</g>
	<g class="part_17">
		<path d="M 2700 9300 h 90 v -210 h -90 v 210 " />
	</g>
	<g class="part_18">
		<path d="M 5500 6500 h 90 v -210 h -90 v 210 " />
	</g>
	<g class="part_19">
		<path d="M -100 4600 h 90 v -210 h -90 v 210 " />
	</g>
	<g class="part_20">
		<path d="M -100 2600 h 90 v -210 h -90 v 210 " />
	</g>
	<g class="part_21">
		<path d="M 3100 9300 h 90 v -210 h -90 v 210 " />
	</g>
	<g class="part_22">
		<path d="M 16900 9300 h 90 v -210 h -90 v 210 " />
	</g>
	<g class="part_23">
		<path d="M 24300 5500 h 90 v -210 h -90 v 210 " />
	</g>
	<g class="part_24">
		<path d="M 19600 4600 h 90 v -210 h -90 v 210 " />
	</g>
	<g class="part_25">
		<path d="M 11500 2800 h 90 v -210 h -90 v 210 " />
	</g>
	<g class="part_26">
		<path d="M 3500 9300 h 90 v -210 h -90 v 210 " />
	</g>
	<g class="part_27">
		<path d="M 16500 9300 h 90 v -210 h -90 v 210 " />
	</g>
	<g class="part_28">
		<path d="M 1000 4600 h 90 v -210 h -90 v 210 " />
	</g>
	<g class="part_29">
		<path d="M 17400 2800 h 90 v -210 h -90 v 210 " />
	</g>
	<g class="part_30">
		<path d="M 17800 2800 h 90 v -210 h -90 v 210 " />
	</g>
	<g class="part_31">
		<path d="M -1800 9300 h 90 v -300 h -90 v 300 " />
	</g>
	<g class="part_32">
		<path d="M 6300 6500 h 90 v -300 h -90 v 300 " />
	</g>
	<g class="part_33">
		<path d="M 4600 2800 h 90 v -300 h -90 v 300 " />
	</g>
	<g class="part_34">
		<path d="M 5400 2800 h 90 v -300 h -90 v 300 " />
	</g>
	<g class="part_35">
		<path d="M 5800 2800 h 90 v -300 h -90 v 300 " />
	</g>
	<g class="part_36">
		<path d="M 6200 2800 h 90 v -300 h -90 v 300 " />
	</g>
	<g class="part_37">
		<path d="M 6600 2800 h 90 v -300 h -90 v 300 " />
	</g>
	<g class="part_38">
		<path d="M 7000 2800 h 90 v -300 h -90 v 300 " />
	</g>
	<g class="part_39">
		<path d="M 7400 2800 h 90 v -300 h -90 v 300 " />
	</g>
	<g class="part_40">
		<path d="M 7800 2800 h 90 v -300 h -90 v 300 " />
	</g>
	<g class="part_41">
		<path d="M 3900 9300 h 90 v -300 h -90 v 300 " />
	</g>
	<g class="part_42">
		<path d="M 6400 4500 h 90 v -300 h -90 v 300 " />
	</g>
	<g class="part_43">
		<path d="M 21400 4500 h 90 v -300 h -90 v 300 " />
	</g>
	<g class="part_44">
		<path d="M 16200 2800 h 90 v -300 h -90 v 300 " />
	</g>
	<g class="part_45">
		<path d="M 4700 9300 h 90 v -240 h -90 v 240 " />
	</g>
	<g class="part_46">
		<path d="M 5500 9300 h 90 v -240 h -90 v 240 " />
	</g>
	<g class="part_47">
		<path d="M 5100 9300 h 90 v -300 h -90 v 300 " />
	</g>
	<g class="part_48">
		<path d="M 5900 9300 h 90 v -300 h -90 v 300 " />
	</g>
	<g class="part_49">
		<path d="M 7500 9300 h 90 v -300 h -90 v 300 " />
	</g>
	<g class="part_50">
		<path d="M 7900 9300 h 90 v -300 h -90 v 300 " />
	</g>
	<g class="part_51">
		<path d="M -1000 6500 h 90 v -300 h -90 v 300 " />
	</g>
	<g class="part_52">
		<path d="M 10700 6500 h 90 v -300 h -90 v 300 " />
	</g>
	<g class="part_53">
		<path d="M 14700 6500 h 90 v -300 h -90 v 300 " />
	</g>
	<g class="part_54">
		<path d="M 15100 6500 h 90 v -300 h -90 v 300 " />
	</g>
	<g class="part_55">
		<path d="M 16700 6500 h 90 v -300 h -90 v 300 " />
	</g>
	<g class="part_56">
		<path d="M 18100 6500 h 90 v -300 h -90 v 300 " />
	</g>
	<g class="part_57">
		<path d="M 20100 6500 h 90 v -300 h -90 v 300 " />
	</g>
	<g class="part_58">
		<path d="M -1800 6100 h 90 v -300 h -90 v 300 " />
	</g>
	<g class="part_59">
		<path d="M 29400 5900 h 90 v -300 h -90 v 300 " />
	</g>
	<g class="part_60">
		<path d="M 19600 5700 h 90 v -300 h -90 v 300 " />
	</g>
	<g class="part_61">
		<path d="M 3100 5600 h 90 v -300 h -90 v 300 " />
	</g>
	<g class="part_62">
		<path d="M 5500 5600 h 90 v -300 h -90 v 300 " />
	</g>
	<g class="part_63">
		<path d="M 2700 5400 h 90 v -300 h -90 v 300 " />
	</g>
	<g class="part_64">
		<path d="M 15800 5000 h 90 v -300 h -90 v 300 " />
	</g>
	<g class="part_65">
		<path d="M 20000 5000 h 90 v -300 h -90 v 300 " />
	</g>
	<g class="part_66">
		<path d="M 3400 2800 h 90 v -300 h -90 v 300 " />
	</g>
	<g class="part_67">
		<path d="M 4200 2800 h 90 v -300 h -90 v 300 " />
	</g>
	<g class="part_68">
		<path d="M 8600 2800 h 90 v -300 h -90 v 300 " />
	</g>
	<g class="part_69">
		<path d="M 9400 2800 h 90 v -300 h -90 v 300 " />
	</g>
	<g class="part_70">
		<path d="M 6300 9300 h 90 v -210 h -90 v 210 " />
	</g>
	<g class="part_71">
		<path d="M 11100 6500 h 90 v -210 h -90 v 210 " />
	</g>
	<g class="part_72">
		<path d="M 1400 4600 h 90 v -210 h -90 v 210 " />
	</g>
	<g class="part_73">
		<path d="M 16600 2800 h 90 v -210 h -90 v 210 " />
	</g>
	<g class="part_74">
		<path d="M 6700 9300 h 90 v -300 h -90 v 300 " />
	</g>
	<g class="part_75">
		<path d="M 7100 9300 h 90 v -300 h -90 v 300 " />
	</g>
	<g class="part_76">
		<path d="M 13300 9300 h 90 v -300 h -90 v 300 " />
	</g>
	<g class="part_77">
		<path d="M 13700 9300 h 90 v -300 h -90 v 300 " />
	</g>
	<g class="part_78">
		<path d="M 14100 9300 h 90 v -300 h -90 v 300 " />
	</g>
	<g class="part_79">
		<path d="M 14500 9300 h 90 v -300 h -90 v 300 " />
	</g>
	<g class="part_80">
		<path d="M 4700 5400 h 90 v -300 h -90 v 300 " />
	</g>
	<g class="part_81">
		<path d="M 21800 4500 h 90 v -300 h -90 v 300 " />
	</g>
	<g class="part_82">
		<path d="M 5900 0 h 90 v -300 h -90 v 300 " />
	</g>
	<g class="part_83">
		<path d="M 18100 9300 h 30 v -30 h -30 v 30 " />
	</g>
	<g class="part_84">
		<path d="M 8700 9300 h 30 v -30 h -30 v 30 " />
	</g>
	<g class="part_85">
		<path d="M 9300 9300 h 30 v -30 h -30 v 30 " />
	</g>
	<g class="part_86">
		<path d="M 18700 6600 h 30 v -30 h -30 v 30 " />
	</g>
	<g class="part_87">
		<path d="M 19300 6600 h 30 v -30 h -30 v 30 " />
	</g>
	<g class="part_88">
		<path d="M 20000 6600 h 30 v -30 h -30 v 30 " />
	</g>
	<g class="part_89">
		<path d="M 22700 3700 h 30 v -30 h -30 v 30 " />
	</g>
	<g class="part_90">
		<path d="M 23400 3700 h 30 v -30 h -30 v 30 " />
	</g>
	<g class="part_91">
		<path d="M 24100 3700 h 30 v -30 h -30 v 30 " />
	</g>
	<g class="part_92">
		<path d="M 2800 3600 h 30 v -30 h -30 v 30 " />
	</g>
	<g class="part_93">
		<path d="M 4300 3600 h 30 v -30 h -30 v 30 " />
	</g>
	<g class="part_94">
		<path d="M 5800 3600 h 30 v -30 h -30 v 30 " />
	</g>
	<g class="part_95">
		<path d="M 6800 0 h 30 v -30 h -30 v 30 " />
	</g>
	<g class="part_96">
		<path d="M 7500 0 h 30 v -30 h -30 v 30 " />
	</g>
	<g class="part_97">
		<path d="M 8200 0 h 30 v -30 h -30 v 30 " />
	</g>
	<g class="part_98">
		<path d="M 8900 0 h 30 v -30 h -30 v 30 " />
	</g>
	<g class="part_99">
		<path d="M 18700 9300 h 90 v -300 h -90 v 300 " />
	</g>
	<g class="part_100">
		<path d="M 11900 2300 h 90 v -300 h -90 v 300 " />
	</g>
	<g class="part_101">
		<path d="M 22600 2300 h 90 v -300 h -90 v 300 " />
	</g>
	<g class="part_102">
		<path d="M 23000 2300 h 90 v -300 h -90 v 300 " />
	</g>
	<g class="part_103">
		<path d="M 23400 2300 h 90 v -300 h -90 v 300 " />
	</g>
	<g class="part_104">
		<path d="M 18900 2200 h 90 v -300 h -90 v 300 " />
	</g>
	<g class="part_105">
		<path d="M 19300 2200 h 90 v -300 h -90 v 300 " />
	</g>
	<g class="part_106">
		<path d="M 19700 2200 h 90 v -300 h -90 v 300 " />
	</g>
	<g class="part_107">
		<path d="M 9800 2100 h 90 v -300 h -90 v 300 " />
	</g>
	<g class="part_108">
		<path d="M 11500 2100 h 90 v -300 h -90 v 300 " />
	</g>
	<g class="part_109">
		<path d="M 13000 2100 h 90 v -300 h -90 v 300 " />
	</g>
	<g class="part_110">
		<path d="M 13800 2100 h 90 v -300 h -90 v 300 " />
	</g>
	<g class="part_111">
		<path d="M 19100 9300 h 30 v -30 h -30 v 30 " />
	</g>
	<g class="part_112">
		<path d="M 20500 5600 h 30 v -30 h -30 v 30 " />
	</g>
	<g class="part_113">
		<path d="M 8300 9300 h 90 v -300 h -90 v 300 " />
	</g>
	<g class="part_114">
		<path d="M -200 6500 h 90 v -300 h -90 v 300 " />
	</g>
	<g class="part_115">
		<path d="M 3500 5400 h 90 v -300 h -90 v 300 " />
	</g>
	<g class="part_116">
		<path d="M 12600 2800 h 90 v -300 h -90 v 300 " />
	</g>
	<g class="part_117">
		<path d="M 20600 2800 h 90 v -300 h -90 v 300 " />
	</g>
	<g class="part_118">
		<path d="M 23800 2800 h 90 v -300 h -90 v 300 " />
	</g>
	<g class="part_119">
		<path d="M 10000 9300 h 90 v -270 h -90 v 270 " />
	</g>
	<g class="part_120">
		<path d="M 10500 9300 h 90 v -270 h -90 v 270 " />
	</g>
	<g class="part_121">
		<path d="M 10900 9300 h 90 v -252 h -90 v 252 " />
	</g>
	<g class="part_122">
		<path d="M 11300 9300 h 90 v -252 h -90 v 252 " />
	</g>
	<g class="part_123">
		<path d="M 11700 9300 h 90 v -252 h -90 v 252 " />
	</g>
	<g class="part_124">
		<path d="M 12100 9300 h 90 v -252 h -90 v 252 " />
	</g>
	<g class="part_125">
		<path d="M 12500 9300 h 90 v -252 h -90 v 252 " />
	</g>
	<g class="part_126">
		<path d="M 12900 9300 h 90 v -252 h -90 v 252 " />
	</g>
	<g class="part_127">
		<path d="M 14900 9300 h 90 v -300 h -90 v 300 " />
	</g>
	<g class="part_128">
		<path d="M 3500 6500 h 90 v -300 h -90 v 300 " />
	</g>
	<g class="part_129">
		<path d="M 15300 9300 h 90 v -240 h -90 v 240 " />
	</g>
	<g class="part_130">
		<path d="M 15700 9300 h 90 v -240 h -90 v 240 " />
	</g>
	<g class="part_131">
		<path d="M 16100 9300 h 90 v -210 h -90 v 210 " />
	</g>
	<g class="part_132">
		<path d="M 4300 4600 h 90 v -210 h -90 v 210 " />
	</g>
	<g class="part_133">
		<path d="M 14600 2800 h 90 v -210 h -90 v 210 " />
	</g>
	<g class="part_134">
		<path d="M 18650 6600 h 60 v -3000 h -60 v 3000 " />
	</g>
	<g class="part_135">
		<path d="M 20600 6600 h 90 v -300 h -90 v 300 " />
	</g>
	<g class="part_136">
		<path d="M 21400 6600 h 90 v -300 h -90 v 300 " />
	</g>
	<g class="part_137">
		<path d="M 22200 6600 h 90 v -300 h -90 v 300 " />
	</g>
	<g class="part_138">
		<path d="M 21000 6600 h 90 v -300 h -90 v 300 " />
	</g>
	<g class="part_139">
		<path d="M 21800 6600 h 90 v -300 h -90 v 300 " />
	</g>
	<g class="part_140">
		<path d="M 22600 6600 h 90 v -300 h -90 v 300 " />
	</g>
	<g class="part_141">
		<path d="M 23000 6600 h 90 v -300 h -90 v 300 " />
	</g>
	<g class="part_142">
		<path d="M 23400 6600 h 90 v -300 h -90 v 300 " />
	</g>
	<g class="part_143">
		<path d="M 23800 6600 h 90 v -300 h -90 v 300 " />
	</g>
	<g class="part_144">
		<path d="M 24200 6600 h 90 v -300 h -90 v 300 " />
	</g>
	<g class="part_145">
		<path d="M 24600 6600 h 90 v -300 h -90 v 300 " />
	</g>
	<g class="part_146">
		<path d="M 25000 6600 h 90 v -300 h -90 v 300 " />
	</g>
	<g class="part_147">
		<path d="M -600 6500 h 90 v -300 h -90 v 300 " />
	</g>
	<g class="part_148">
		<path d="M 25400 6600 h 90 v -300 h -90 v 300 " />
	</g>
	<g class="part_149">
		<path d="M 27400 6600 h 90 v -300 h -90 v 300 " />
	</g>
	<g class="part_150">
		<path d="M 27800 6600 h 90 v -300 h -90 v 300 " />
	</g>
	<g class="part_151">
		<path d="M 2700 6500 h 90 v -300 h -90 v 300 " />
	</g>
	<g class="part_152">
		<path d="M 27400 5500 h 90 v -300 h -90 v 300 " />
	</g>
	<g class="part_153">
		<path d="M 28600 5500 h 90 v -300 h -90 v 300 " />
	</g>
	<g class="part_154">
		<path d="M 5100 4800 h 90 v -300 h -90 v 300 " />
	</g>
	<g class="part_155">
		<path d="M 3900 4600 h 90 v -300 h -90 v 300 " />
	</g>
	<g class="part_156">
		<path d="M 15400 2800 h 90 v -300 h -90 v 300 " />
	</g>
	<g class="part_157">
		<path d="M 17000 2800 h 90 v -300 h -90 v 300 " />
	</g>
	<g class="part_158">
		<path d="M 29200 2700 h 90 v -300 h -90 v 300 " />
	</g>
	<g class="part_159">
		<path d="M 300 2300 h 90 v -300 h -90 v 300 " />
	</g>
	<g class="part_160">
		<path d="M 25800 6600 h 90 v -210 h -90 v 210 " />
	</g>
	<g class="part_161">
		<path d="M 19600 2900 h 90 v -210 h -90 v 210 " />
	</g>
	<g class="part_162">
		<path d="M 26200 6600 h 90 v -300 h -90 v 300 " />
	</g>
	<g class="part_163">
		<path d="M 4300 6500 h 90 v -300 h -90 v 300 " />
	</g>
	<g class="part_164">
		<path d="M 26600 6600 h 90 v -300 h -90 v 300 " />
	</g>
	<g class="part_165">
		<path d="M 15800 2800 h 90 v -300 h -90 v 300 " />
	</g>
	<g class="part_166">
		<path d="M 27000 6600 h 90 v -210 h -90 v 210 " />
	</g>
	<g class="part_167">
		<path d="M 28200 6600 h 90 v -210 h -90 v 210 " />
	</g>
	<g class="part_168">
		<path d="M 21800 5200 h 90 v -210 h -90 v 210 " />
	</g>
	<g class="part_169">
		<path d="M 6800 5100 h 90 v -210 h -90 v 210 " />
	</g>
	<g class="part_170">
		<path d="M 28600 6600 h 90 v -300 h -90 v 300 " />
	</g>
	<g class="part_171">
		<path d="M 29000 6600 h 90 v -300 h -90 v 300 " />
	</g>
	<g class="part_172">
		<path d="M 300 6500 h 90 v -300 h -90 v 300 " />
	</g>
	<g class="part_173">
		<path d="M 11900 6500 h 90 v -300 h -90 v 300 " />
	</g>
	<g class="part_174">
		<path d="M 13400 2800 h 90 v -300 h -90 v 300 " />
	</g>
	<g class="part_175">
		<path d="M 29400 6600 h 90 v -210 h -90 v 210 " />
	</g>
	<g class="part_176">
		<path d="M 29800 6600 h 90 v -240 h -90 v 240 " />
	</g>
	<g class="part_177">
		<path d="M 7200 5100 h 90 v -240 h -90 v 240 " />
	</g>
	<g class="part_178">
		<path d="M 19200 4600 h 90 v -240 h -90 v 240 " />
	</g>
	<g class="part_179">
		<path d="M 24600 4600 h 90 v -240 h -90 v 240 " />
	</g>
	<g class="part_180">
		<path d="M 25200 2700 h 90 v -240 h -90 v 240 " />
	</g>
	<g class="part_181">
		<path d="M 30200 6600 h 90 v -240 h -90 v 240 " />
	</g>
	<g class="part_182">
		<path d="M 15400 5000 h 90 v -240 h -90 v 240 " />
	</g>
	<g class="part_183">
		<path d="M 30600 6600 h 90 v -300 h -90 v 300 " />
	</g>
	<g class="part_184">
		<path d="M 700 6500 h 90 v -300 h -90 v 300 " />
	</g>
	<g class="part_185">
		<path d="M 1100 6500 h 90 v -300 h -90 v 300 " />
	</g>
	<g class="part_186">
		<path d="M 1500 6500 h 90 v -300 h -90 v 300 " />
	</g>
	<g class="part_187">
		<path d="M 1900 6500 h 90 v -300 h -90 v 300 " />
	</g>
	<g class="part_188">
		<path d="M 2200 2800 h 90 v -300 h -90 v 300 " />
	</g>
	<g class="part_189">
		<path d="M 5000 2800 h 90 v -300 h -90 v 300 " />
	</g>
	<g class="part_190">
		<path d="M 31036 6600 h 90 v -210 h -90 v 210 " />
	</g>
	<g class="part_191">
		<path d="M 200 5400 h 90 v -210 h -90 v 210 " />
	</g>
	<g class="part_192">
		<path d="M 31436 6600 h 90 v -210 h -90 v 210 " />
	</g>
	<g class="part_193">
		<path d="M 700 2300 h 90 v -210 h -90 v 210 " />
	</g>
	<g class="part_194">
		<path d="M 1100 2300 h 90 v -210 h -90 v 210 " />
	</g>
	<g class="part_195">
		<path d="M 10700 2300 h 90 v -210 h -90 v 210 " />
	</g>
	<g class="part_196">
		<path d="M -1 6500 h 30 v -30 h -30 v 30 " />
	</g>
	<g class="part_197">
		<path d="M 2300 6500 h 90 v -240 h -90 v 240 " />
	</g>
	<g class="part_198">
		<path d="M 3100 6500 h 90 v -210 h -90 v 210 " />
	</g>
	<g class="part_199">
		<path d="M 1800 5400 h 90 v -210 h -90 v 210 " />
	</g>
	<g class="part_200">
		<path d="M 3900 6500 h 90 v -210 h -90 v 210 " />
	</g>
	<g class="part_201">
		<path d="M 4700 6500 h 90 v -300 h -90 v 300 " />
	</g>
	<g class="part_202">
		<path d="M 14600 5000 h 90 v -300 h -90 v 300 " />
	</g>
	<g class="part_203">
		<path d="M 2600 2800 h 90 v -300 h -90 v 300 " />
	</g>
	<g class="part_204">
		<path d="M 5900 6500 h 90 v -300 h -90 v 300 " />
	</g>
	<g class="part_205">
		<path d="M 12300 6500 h 90 v -300 h -90 v 300 " />
	</g>
	<g class="part_206">
		<path d="M 14300 6500 h 90 v -300 h -90 v 300 " />
	</g>
	<g class="part_207">
		<path d="M 7400 6500 h 60 v -1500 h -60 v 1500 " />
	</g>
	<g class="part_208">
		<path d="M 8000 6500 h 30 v -30 h -30 v 30 " />
	</g>
	<g class="part_209">
		<path d="M 8100 6500 h 30 v -30 h -30 v 30 " />
	</g>
	<g class="part_210">
		<path d="M 8200 6500 h 30 v -30 h -30 v 30 " />
	</g>
	<g class="part_211">
		<path d="M 8300 6500 h 30 v -30 h -30 v 30 " />
	</g>
	<g class="part_212">
		<path d="M -1100 5800 h 30 v -30 h -30 v 30 " />
	</g>
	<g class="part_213">
		<path d="M 3100 5800 h 30 v -30 h -30 v 30 " />
	</g>
	<g class="part_214">
		<path d="M 3200 5800 h 30 v -30 h -30 v 30 " />
	</g>
	<g class="part_215">
		<path d="M 21900 5500 h 30 v -30 h -30 v 30 " />
	</g>
	<g class="part_216">
		<path d="M 22000 5500 h 30 v -30 h -30 v 30 " />
	</g>
	<g class="part_217">
		<path d="M 22100 5500 h 30 v -30 h -30 v 30 " />
	</g>
	<g class="part_218">
		<path d="M 22200 5500 h 30 v -30 h -30 v 30 " />
	</g>
	<g class="part_219">
		<path d="M 22300 5500 h 30 v -30 h -30 v 30 " />
	</g>
	<g class="part_220">
		<path d="M 22400 5500 h 30 v -30 h -30 v 30 " />
	</g>
	<g class="part_221">
		<path d="M 22500 5500 h 30 v -30 h -30 v 30 " />
	</g>
	<g class="part_222">
		<path d="M 22600 5500 h 30 v -30 h -30 v 30 " />
	</g>
	<g class="part_223">
		<path d="M 22700 5500 h 30 v -30 h -30 v 30 " />
	</g>
	<g class="part_224">
		<path d="M 22800 5500 h 30 v -30 h -30 v 30 " />
	</g>
	<g class="part_225">
		<path d="M 22900 5500 h 30 v -30 h -30 v 30 " />
	</g>
	<g class="part_226">
		<path d="M 23000 5500 h 30 v -30 h -30 v 30 " />
	</g>
	<g class="part_227">
		<path d="M 15100 5200 h 30 v -30 h -30 v 30 " />
	</g>
	<g class="part_228">
		<path d="M 15200 5200 h 30 v -30 h -30 v 30 " />
	</g>
	<g class="part_229">
		<path d="M 15300 5200 h 30 v -30 h -30 v 30 " />
	</g>
	<g class="part_230">
		<path d="M 10900 4900 h 30 v -30 h -30 v 30 " />
	</g>
	<g class="part_231">
		<path d="M 11000 4900 h 30 v -30 h -30 v 30 " />
	</g>
	<g class="part_232">
		<path d="M 11800 4900 h 30 v -30 h -30 v 30 " />
	</g>
	<g class="part_233">
		<path d="M 10200 3600 h 30 v -30 h -30 v 30 " />
	</g>
	<g class="part_234">
		<path d="M 10300 3600 h 30 v -30 h -30 v 30 " />
	</g>
	<g class="part_235">
		<path d="M 10400 3600 h 30 v -30 h -30 v 30 " />
	</g>
	<g class="part_236">
		<path d="M 10500 3600 h 30 v -30 h -30 v 30 " />
	</g>
	<g class="part_237">
		<path d="M 18900 2900 h 30 v -30 h -30 v 30 " />
	</g>
	<g class="part_238">
		<path d="M 19000 2900 h 30 v -30 h -30 v 30 " />
	</g>
	<g class="part_239">
		<path d="M 19100 2900 h 30 v -30 h -30 v 30 " />
	</g>
	<g class="part_240">
		<path d="M 8400 6500 h 30 v -300 h -30 v 300 " />
	</g>
	<g class="part_241">
		<path d="M 8600 6500 h 30 v -300 h -30 v 300 " />
	</g>
	<g class="part_242">
		<path d="M 8800 6500 h 30 v -300 h -30 v 300 " />
	</g>
	<g class="part_243">
		<path d="M 8900 6500 h 30 v -300 h -30 v 300 " />
	</g>
	<g class="part_244">
		<path d="M 9100 6500 h 90 v -240 h -90 v 240 " />
	</g>
	<g class="part_245">
		<path d="M 9500 6500 h 90 v -240 h -90 v 240 " />
	</g>
	<g class="part_246">
		<path d="M 9900 6500 h 90 v -240 h -90 v 240 " />
	</g>
	<g class="part_247">
		<path d="M 10300 6500 h 90 v -240 h -90 v 240 " />
	</g>
	<g class="part_248">
		<path d="M 18500 6500 h 90 v -240 h -90 v 240 " />
	</g>
	<g class="part_249">
		<path d="M 18900 6500 h 90 v -240 h -90 v 240 " />
	</g>
	<g class="part_250">
		<path d="M 19300 6500 h 90 v -240 h -90 v 240 " />
	</g>
	<g class="part_251">
		<path d="M 19700 6500 h 90 v -240 h -90 v 240 " />
	</g>
	<g class="part_252">
		<path d="M -1500 6000 h 90 v -240 h -90 v 240 " />
	</g>
	<g class="part_253">
		<path d="M 25800 5900 h 90 v -240 h -90 v 240 " />
	</g>
	<g class="part_254">
		<path d="M 27000 5900 h 90 v -240 h -90 v 240 " />
	</g>
	<g class="part_255">
		<path d="M 28200 5900 h 90 v -240 h -90 v 240 " />
	</g>
	<g class="part_256">
		<path d="M 0 5400 h 90 v -240 h -90 v 240 " />
	</g>
	<g class="part_257">
		<path d="M -300 5400 h 90 v -240 h -90 v 240 " />
	</g>
	<g class="part_258">
		<path d="M 11500 6500 h 90 v -210 h -90 v 210 " />
	</g>
	<g class="part_259">
		<path d="M 12700 6500 h 90 v -300 h -90 v 300 " />
	</g>
	<g class="part_260">
		<path d="M 13100 6500 h 90 v -210 h -90 v 210 " />
	</g>
	<g class="part_261">
		<path d="M 13500 6500 h 90 v -210 h -90 v 210 " />
	</g>
	<g class="part_262">
		<path d="M 13900 6500 h 90 v -210 h -90 v 210 " />
	</g>
	<g class="part_263">
		<path d="M 15500 6500 h 90 v -300 h -90 v 300 " />
	</g>
	<g class="part_264">
		<path d="M 15900 6500 h 90 v -300 h -90 v 300 " />
	</g>
	<g class="part_265">
		<path d="M 19200 5700 h 90 v -300 h -90 v 300 " />
	</g>
	<g class="part_266">
		<path d="M 2300 5600 h 90 v -300 h -90 v 300 " />
	</g>
	<g class="part_267">
		<path d="M 3900 5600 h 90 v -300 h -90 v 300 " />
	</g>
	<g class="part_268">
		<path d="M 16300 6500 h 90 v -210 h -90 v 210 " />
	</g>
	<g class="part_269">
		<path d="M 27800 5500 h 90 v -210 h -90 v 210 " />
	</g>
	<g class="part_270">
		<path d="M 30500 5500 h 90 v -210 h -90 v 210 " />
	</g>
	<g class="part_271">
		<path d="M -1100 5400 h 90 v -210 h -90 v 210 " />
	</g>
	<g class="part_272">
		<path d="M 6400 5200 h 90 v -210 h -90 v 210 " />
	</g>
	<g class="part_273">
		<path d="M 9800 2800 h 90 v -210 h -90 v 210 " />
	</g>
	<g class="part_274">
		<path d="M 13000 2800 h 90 v -210 h -90 v 210 " />
	</g>
	<g class="part_275">
		<path d="M 31036 5900 h 90 v -240 h -90 v 240 " />
	</g>
	<g class="part_276">
		<path d="M 31436 5900 h 90 v -240 h -90 v 240 " />
	</g>
	<g class="part_277">
		<path d="M 600 5400 h 90 v -240 h -90 v 240 " />
	</g>
	<g class="part_278">
		<path d="M 1000 5400 h 90 v -240 h -90 v 240 " />
	</g>
	<g class="part_279">
		<path d="M 11100 5800 h 90 v -420 h -90 v 420 " />
	</g>
	<g class="part_280">
		<path d="M 13100 5800 h 90 v -420 h -90 v 420 " />
	</g>
	<g class="part_281">
		<path d="M 29800 5800 h 90 v -420 h -90 v 420 " />
	</g>
	<g class="part_282">
		<path d="M 9100 5700 h 90 v -420 h -90 v 420 " />
	</g>
	<g class="part_283">
		<path d="M 9800 5700 h 90 v -420 h -90 v 420 " />
	</g>
	<g class="part_284">
		<path d="M 18500 5700 h 90 v -420 h -90 v 420 " />
	</g>
	<g class="part_285">
		<path d="M 13800 5600 h 30 v -30 h -30 v 30 " />
	</g>
	<g class="part_286">
		<path d="M 21200 5500 h 30 v -30 h -30 v 30 " />
	</g>
	<g class="part_287">
		<path d="M 22700 2600 h 30 v -30 h -30 v 30 " />
	</g>
	<g class="part_288">
		<path d="M 400 2500 h 30 v -30 h -30 v 30 " />
	</g>
	<g class="part_289">
		<path d="M 10700 2500 h 30 v -30 h -30 v 30 " />
	</g>
	<g class="part_290">
		<path d="M 23100 5500 h 30 v -30 h -30 v 30 " />
	</g>
	<g class="part_291">
		<path d="M 16700 5200 h 30 v -30 h -30 v 30 " />
	</g>
	<g class="part_292">
		<path d="M 20100 5200 h 30 v -30 h -30 v 30 " />
	</g>
	<g class="part_293">
		<path d="M 23700 5500 h 30 v -30 h -30 v 30 " />
	</g>
	<g class="part_294">
		<path d="M 11900 5200 h 30 v -30 h -30 v 30 " />
	</g>
	<g class="part_295">
		<path d="M 13800 5200 h 30 v -30 h -30 v 30 " />
	</g>
	<g class="part_296">
		<path d="M 1000 3600 h 30 v -30 h -30 v 30 " />
	</g>
	<g class="part_297">
		<path d="M 24700 5500 h 90 v -240 h -90 v 240 " />
	</g>
	<g class="part_298">
		<path d="M -1800 5100 h 90 v -240 h -90 v 240 " />
	</g>
	<g class="part_299">
		<path d="M -1500 5100 h 90 v -240 h -90 v 240 " />
	</g>
	<g class="part_300">
		<path d="M 27800 4800 h 90 v -240 h -90 v 240 " />
	</g>
	<g class="part_301">
		<path d="M 21000 2700 h 90 v -240 h -90 v 240 " />
	</g>
	<g class="part_302">
		<path d="M 31436 2700 h 90 v -240 h -90 v 240 " />
	</g>
	<g class="part_303">
		<path d="M 25100 5500 h 90 v -300 h -90 v 300 " />
	</g>
	<g class="part_304">
		<path d="M 10500 4900 h 90 v -300 h -90 v 300 " />
	</g>
	<g class="part_305">
		<path d="M 1400 5400 h 90 v -210 h -90 v 210 " />
	</g>
	<g class="part_306">
		<path d="M 4300 5400 h 90 v -210 h -90 v 210 " />
	</g>
	<g class="part_307">
		<path d="M 15000 2800 h 90 v -210 h -90 v 210 " />
	</g>
	<g class="part_308">
		<path d="M 5900 5400 h 90 v -360 h -90 v 360 " />
	</g>
	<g class="part_309">
		<path d="M 5250 5200 h 30 v -30 h -30 v 30 " />
	</g>
	<g class="part_310">
		<path d="M 8000 5200 h 30 v -30 h -30 v 30 " />
	</g>
	<g class="part_311">
		<path d="M 10500 5200 h 30 v -30 h -30 v 30 " />
	</g>
	<g class="part_312">
		<path d="M 14500 5200 h 30 v -30 h -30 v 30 " />
	</g>
	<g class="part_313">
		<path d="M 15400 5200 h 30 v -30 h -30 v 30 " />
	</g>
	<g class="part_314">
		<path d="M 16000 5200 h 30 v -30 h -30 v 30 " />
	</g>
	<g class="part_315">
		<path d="M 13000 0 h 30 v -30 h -30 v 30 " />
	</g>
	<g class="part_316">
		<path d="M 13700 0 h 30 v -30 h -30 v 30 " />
	</g>
	<g class="part_317">
		<path d="M 14400 0 h 30 v -30 h -30 v 30 " />
	</g>
	<g class="part_318">
		<path d="M 24800 3700 h 30 v -30 h -30 v 30 " />
	</g>
	<g class="part_319">
		<path d="M 6800 3600 h 30 v -30 h -30 v 30 " />
	</g>
	<g class="part_320">
		<path d="M 7500 3600 h 30 v -30 h -30 v 30 " />
	</g>
	<g class="part_321">
		<path d="M 8200 3600 h 30 v -30 h -30 v 30 " />
	</g>
	<g class="part_322">
		<path d="M 8900 3600 h 30 v -30 h -30 v 30 " />
	</g>
	<g class="part_323">
		<path d="M 9600 3600 h 30 v -30 h -30 v 30 " />
	</g>
	<g class="part_324">
		<path d="M 20700 5200 h 180 v -720 h -180 v 720 " />
	</g>
	<g class="part_325">
		<path d="M 25500 5100 h 180 v -720 h -180 v 720 " />
	</g>
	<g class="part_326">
		<path d="M 31336 5100 h 180 v -720 h -180 v 720 " />
	</g>
	<g class="part_327">
		<path d="M 11900 5000 h 180 v -720 h -180 v 720 " />
	</g>
	<g class="part_328">
		<path d="M 21400 5200 h 90 v -210 h -90 v 210 " />
	</g>
	<g class="part_329">
		<path d="M 22200 5200 h 90 v -210 h -90 v 210 " />
	</g>
	<g class="part_330">
		<path d="M 22600 5200 h 90 v -210 h -90 v 210 " />
	</g>
	<g class="part_331">
		<path d="M 8000 5100 h 90 v -210 h -90 v 210 " />
	</g>
	<g class="part_332">
		<path d="M 8400 5100 h 90 v -210 h -90 v 210 " />
	</g>
	<g class="part_333">
		<path d="M 30936 5100 h 90 v -210 h -90 v 210 " />
	</g>
	<g class="part_334">
		<path d="M 12600 5000 h 90 v -210 h -90 v 210 " />
	</g>
	<g class="part_335">
		<path d="M 3800 2800 h 90 v -210 h -90 v 210 " />
	</g>
	<g class="part_336">
		<path d="M 23000 5200 h 90 v -210 h -90 v 210 " />
	</g>
	<g class="part_337">
		<path d="M 28200 5100 h 90 v -210 h -90 v 210 " />
	</g>
	<g class="part_338">
		<path d="M 19200 2900 h 90 v -210 h -90 v 210 " />
	</g>
	<g class="part_339">
		<path d="M 23400 5200 h 90 v -210 h -90 v 210 " />
	</g>
	<g class="part_340">
		<path d="M 23800 5200 h 90 v -210 h -90 v 210 " />
	</g>
	<g class="part_341">
		<path d="M 7600 5100 h 90 v -210 h -90 v 210 " />
	</g>
	<g class="part_342">
		<path d="M 27000 5100 h 90 v -210 h -90 v 210 " />
	</g>
	<g class="part_343">
		<path d="M 13800 5000 h 90 v -210 h -90 v 210 " />
	</g>
	<g class="part_344">
		<path d="M 14200 5000 h 90 v -300 h -90 v 300 " />
	</g>
	<g class="part_345">
		<path d="M 15000 5000 h 90 v -300 h -90 v 300 " />
	</g>
	<g class="part_346">
		<path d="M 16200 5000 h 90 v -300 h -90 v 300 " />
	</g>
	<g class="part_347">
		<path d="M 1800 2800 h 90 v -300 h -90 v 300 " />
	</g>
	<g class="part_348">
		<path d="M 8200 2800 h 90 v -300 h -90 v 300 " />
	</g>
	<g class="part_349">
		<path d="M 9000 2800 h 90 v -300 h -90 v 300 " />
	</g>
	<g class="part_350">
		<path d="M 16600 5000 h 90 v -210 h -90 v 210 " />
	</g>
	<g class="part_351">
		<path d="M 13800 2800 h 90 v -210 h -90 v 210 " />
	</g>
	<g class="part_352">
		<path d="M 24200 4800 h 90 v -240 h -90 v 240 " />
	</g>
	<g class="part_353">
		<path d="M 2300 4600 h 90 v -240 h -90 v 240 " />
	</g>
	<g class="part_354">
		<path d="M 3100 4600 h 90 v -240 h -90 v 240 " />
	</g>
	<g class="part_355">
		<path d="M 21800 2700 h 90 v -240 h -90 v 240 " />
	</g>
	<g class="part_356">
		<path d="M -1100 4600 h 180 v -960 h -180 v 960 " />
	</g>
	<g class="part_357">
		<path d="M 30400 2700 h 180 v -960 h -180 v 960 " />
	</g>
	<g class="part_358">
		<path d="M 400 4600 h 90 v -360 h -90 v 360 " />
	</g>
	<g class="part_359">
		<path d="M 1800 4600 h 90 v -360 h -90 v 360 " />
	</g>
	<g class="part_360">
		<path d="M 29000 4600 h 90 v -360 h -90 v 360 " />
	</g>
	<g class="part_361">
		<path d="M 30500 4600 h 90 v -240 h -90 v 240 " />
	</g>
	<g class="part_362">
		<path d="M 26000 2700 h 90 v -240 h -90 v 240 " />
	</g>
	<g class="part_363">
		<path d="M 22350 3740 h 60 v -960 h -60 v 960 " />
	</g>
	<g class="part_364">
		<path d="M 26200 3700 h 30 v -30 h -30 v 30 " />
	</g>
	<g class="part_365">
		<path d="M 26800 3700 h 30 v -30 h -30 v 30 " />
	</g>
	<g class="part_366">
		<path d="M 27500 3700 h 30 v -30 h -30 v 30 " />
	</g>
	<g class="part_367">
		<path d="M 28200 3700 h 30 v -30 h -30 v 30 " />
	</g>
	<g class="part_368">
		<path d="M 29600 3700 h 30 v -30 h -30 v 30 " />
	</g>
	<g class="part_369">
		<path d="M 30300 3700 h 30 v -30 h -30 v 30 " />
	</g>
	<g class="part_370">
		<path d="M -1800 3600 h 30 v -30 h -30 v 30 " />
	</g>
	<g class="part_371">
		<path d="M 2500 3600 h 30 v -30 h -30 v 30 " />
	</g>
	<g class="part_372">
		<path d="M 3600 3600 h 30 v -30 h -30 v 30 " />
	</g>
	<g class="part_373">
		<path d="M 5100 3600 h 30 v -30 h -30 v 30 " />
	</g>
	<g class="part_374">
		<path d="M 5500 3600 h 30 v -30 h -30 v 30 " />
	</g>
	<g class="part_375">
		<path d="M 10600 3600 h 30 v -30 h -30 v 30 " />
	</g>
	<g class="part_376">
		<path d="M 11200 3600 h 30 v -30 h -30 v 30 " />
	</g>
	<g class="part_377">
		<path d="M 12700 3600 h 30 v -30 h -30 v 30 " />
	</g>
	<g class="part_378">
		<path d="M 13400 3600 h 30 v -30 h -30 v 30 " />
	</g>
	<g class="part_379">
		<path d="M 14100 3600 h 30 v -30 h -30 v 30 " />
	</g>
	<g class="part_380">
		<path d="M 14800 3600 h 30 v -30 h -30 v 30 " />
	</g>
	<g class="part_381">
		<path d="M 15500 3600 h 30 v -30 h -30 v 30 " />
	</g>
	<g class="part_382">
		<path d="M 16100 3600 h 30 v -30 h -30 v 30 " />
	</g>
	<g class="part_383">
		<path d="M 16700 3600 h 30 v -30 h -30 v 30 " />
	</g>
	<g class="part_384">
		<path d="M 17400 3600 h 30 v -30 h -30 v 30 " />
	</g>
	<g class="part_385">
		<path d="M 18700 2856 h 60 v -540 h -60 v 540 " />
	</g>
	<g class="part_386">
		<path d="M 20000 2900 h 90 v -210 h -90 v 210 " />
	</g>
	<g class="part_387">
		<path d="M 20400 2900 h 30 v -300 h -30 v 300 " />
	</g>
	<g class="part_388">
		<path d="M 27800 2900 h 30 v -300 h -30 v 300 " />
	</g>
	<g class="part_389">
		<path d="M 10500 2800 h 30 v -300 h -30 v 300 " />
	</g>
	<g class="part_390">
		<path d="M 21400 2900 h 30 v -30 h -30 v 30 " />
	</g>
	<g class="part_391">
		<path d="M 26200 2900 h 30 v -30 h -30 v 30 " />
	</g>
	<g class="part_392">
		<path d="M 28000 2900 h 30 v -30 h -30 v 30 " />
	</g>
	<g class="part_393">
		<path d="M 29200 2900 h 30 v -30 h -30 v 30 " />
	</g>
	<g class="part_394">
		<path d="M 30400 2900 h 30 v -30 h -30 v 30 " />
	</g>
	<g class="part_395">
		<path d="M 0 2800 h 30 v -30 h -30 v 30 " />
	</g>
	<g class="part_396">
		<path d="M 900 2800 h 30 v -30 h -30 v 30 " />
	</g>
	<g class="part_397">
		<path d="M 10700 2800 h 30 v -30 h -30 v 30 " />
	</g>
	<g class="part_398">
		<path d="M 22600 2900 h 30 v -30 h -30 v 30 " />
	</g>
	<g class="part_399">
		<path d="M 22900 2900 h 30 v -30 h -30 v 30 " />
	</g>
	<g class="part_400">
		<path d="M 23100 2900 h 30 v -30 h -30 v 30 " />
	</g>
	<g class="part_401">
		<path d="M 23300 2900 h 30 v -30 h -30 v 30 " />
	</g>
	<g class="part_402">
		<path d="M 23600 2900 h 30 v -30 h -30 v 30 " />
	</g>
	<g class="part_403">
		<path d="M 24100 2900 h 30 v -30 h -30 v 30 " />
	</g>
	<g class="part_404">
		<path d="M 10200 2800 h 30 v -30 h -30 v 30 " />
	</g>
	<g class="part_405">
		<path d="M 23800 2900 h 30 v -30 h -30 v 30 " />
	</g>
	<g class="part_406">
		<path d="M 24501 2899 h 60 v -390 h -60 v 390 " />
	</g>
	<g class="part_407">
		<path d="M 24901 2899 h 60 v -390 h -60 v 390 " />
	</g>
	<g class="part_408">
		<path d="M 27101 2903 h 60 v -150 h -60 v 150 " />
	</g>
	<g class="part_409">
		<path d="M 27501 2903 h 60 v -150 h -60 v 150 " />
	</g>
	<g class="part_410">
		<path d="M 28901 2903 h 60 v -150 h -60 v 150 " />
	</g>
	<g class="part_411">
		<path d="M 30101 2903 h 60 v -150 h -60 v 150 " />
	</g>
	<g class="part_412">
		<path d="M -1 2803 h 60 v -150 h -60 v 150 " />
	</g>
	<g class="part_413">
		<path d="M -1388 2803 h 60 v -150 h -60 v 150 " />
	</g>
	<g class="part_414">
		<path d="M 3000 2800 h 90 v -240 h -90 v 240 " />
	</g>
	<g class="part_415">
		<path d="M 14200 2800 h 90 v -210 h -90 v 210 " />
	</g>
	<g class="part_416">
		<path d="M 22200 2800 h 90 v -210 h -90 v 210 " />
	</g>
	<g class="part_417">
		<path d="M 22600 2800 h 30 v -30 h -30 v 30 " />
	</g>
	<g class="part_418">
		<path d="M 23000 2800 h 30 v -30 h -30 v 30 " />
	</g>
	<g class="part_419">
		<path d="M 23400 2800 h 30 v -30 h -30 v 30 " />
	</g>
	<g class="part_420">
		<path d="M 21400 2700 h 90 v -210 h -90 v 210 " />
	</g>
	<g class="part_421">
		<path d="M 26400 2700 h 90 v -210 h -90 v 210 " />
	</g>
	<g class="part_422">
		<path d="M 28400 2700 h 90 v -210 h -90 v 210 " />
	</g>
	<g class="part_423">
		<path d="M 25600 2700 h 90 v -210 h -90 v 210 " />
	</g>
	<g class="part_424">
		<path d="M 28000 2700 h 90 v -300 h -90 v 300 " />
	</g>
	<g class="part_425">
		<path d="M 29750 2400 h 30 v -30 h -30 v 30 " />
	</g>
	<g class="part_426">
		<path d="M 11100 2300 h 90 v -240 h -90 v 240 " />
	</g>
	<g class="part_427">
		<path d="M 14200 2000 h 30 v -30 h -30 v 30 " />
	</g>
	<g class="part_428">
		<path d="M 14600 2000 h 30 v -30 h -30 v 30 " />
	</g>
	<g class="part_429">
		<path d="M 15000 2000 h 30 v -30 h -30 v 30 " />
	</g>
	<g class="part_430">
		<path d="M 16600 2000 h 30 v -30 h -30 v 30 " />
	</g>
	<g class="part_431">
		<path d="M 17400 2000 h 30 v -30 h -30 v 30 " />
	</g>
	<g class="part_432">
		<path d="M 17800 2000 h 30 v -30 h -30 v 30 " />
	</g>
	<g class="part_433">
		<path d="M 21400 2000 h 30 v -30 h -30 v 30 " />
	</g>
	<g class="part_434">
		<path d="M 22200 2000 h 30 v -30 h -30 v 30 " />
	</g>
	<g class="part_435">
		<path d="M 25600 2000 h 30 v -30 h -30 v 30 " />
	</g>
	<g class="part_436">
		<path d="M 26400 2000 h 30 v -30 h -30 v 30 " />
	</g>
	<g class="part_437">
		<path d="M 26800 2000 h 30 v -30 h -30 v 30 " />
	</g>
	<g class="part_438">
		<path d="M 27200 2000 h 30 v -30 h -30 v 30 " />
	</g>
	<g class="part_439">
		<path d="M 28400 2000 h 30 v -30 h -30 v 30 " />
	</g>
	<g class="part_440">
		<path d="M 28800 2000 h 30 v -30 h -30 v 30 " />
	</g>
	<g class="part_441">
		<path d="M 29600 2000 h 30 v -30 h -30 v 30 " />
	</g>
	<g class="part_442">
		<path d="M -1800 1900 h 30 v -30 h -30 v 30 " />
	</g>
	<g class="part_443">
		<path d="M -1500 1900 h 30 v -30 h -30 v 30 " />
	</g>
	<g class="part_444">
		<path d="M 20100 1900 h 30 v -30 h -30 v 30 " />
	</g>
	<g class="part_445">
		<path d="M 21800 1900 h 30 v -30 h -30 v 30 " />
	</g>
	<g class="part_446">
		<path d="M 27600 1900 h 30 v -30 h -30 v 30 " />
	</g>
	<g class="part_447">
		<path d="M 31436 1900 h 30 v -30 h -30 v 30 " />
	</g>
	<g class="part_448">
		<path d="M 14200 1800 h 30 v -30 h -30 v 30 " />
	</g>
	<g class="part_449">
		<path d="M 14600 1800 h 30 v -30 h -30 v 30 " />
	</g>
	<g class="part_450">
		<path d="M 15000 1800 h 30 v -30 h -30 v 30 " />
	</g>
	<g class="part_451">
		<path d="M 16600 1800 h 30 v -30 h -30 v 30 " />
	</g>
	<g class="part_452">
		<path d="M 17400 1800 h 30 v -30 h -30 v 30 " />
	</g>
	<g class="part_453">
		<path d="M 17800 1800 h 30 v -30 h -30 v 30 " />
	</g>
	<g class="part_454">
		<path d="M 21000 1800 h 30 v -30 h -30 v 30 " />
	</g>
	<g class="part_455">
		<path d="M 22200 1800 h 30 v -30 h -30 v 30 " />
	</g>
	<g class="part_456">
		<path d="M 25200 1800 h 30 v -30 h -30 v 30 " />
	</g>
	<g class="part_457">
		<path d="M 25600 1800 h 30 v -30 h -30 v 30 " />
	</g>
	<g class="part_458">
		<path d="M 26000 1800 h 30 v -30 h -30 v 30 " />
	</g>
	<g class="part_459">
		<path d="M 26400 1800 h 30 v -30 h -30 v 30 " />
	</g>
	<g class="part_460">
		<path d="M 26800 1800 h 30 v -30 h -30 v 30 " />
	</g>
	<g class="part_461">
		<path d="M 28400 1800 h 30 v -30 h -30 v 30 " />
	</g>
	<g class="part_462">
		<path d="M 28800 1800 h 30 v -30 h -30 v 30 " />
	</g>
	<g class="part_463">
		<path d="M 29600 1800 h 30 v -30 h -30 v 30 " />
	</g>
	<g class="part_464">
		<path d="M -1800 1700 h 30 v -30 h -30 v 30 " />
	</g>
	<g class="part_465">
		<path d="M -1500 1700 h 30 v -30 h -30 v 30 " />
	</g>
	<g class="part_466">
		<path d="M 1500 1700 h 30 v -30 h -30 v 30 " />
	</g>
	<g class="part_467">
		<path d="M 1900 1700 h 30 v -30 h -30 v 30 " />
	</g>
	<g class="part_468">
		<path d="M 2300 1700 h 30 v -30 h -30 v 30 " />
	</g>
	<g class="part_469">
		<path d="M 2700 1700 h 30 v -30 h -30 v 30 " />
	</g>
	<g class="part_470">
		<path d="M 3100 1700 h 30 v -30 h -30 v 30 " />
	</g>
	<g class="part_471">
		<path d="M 4200 1700 h 30 v -30 h -30 v 30 " />
	</g>
	<g class="part_472">
		<path d="M 4600 1700 h 30 v -30 h -30 v 30 " />
	</g>
	<g class="part_473">
		<path d="M 5000 1700 h 30 v -30 h -30 v 30 " />
	</g>
	<g class="part_474">
		<path d="M 5400 1700 h 30 v -30 h -30 v 30 " />
	</g>
	<g class="part_475">
		<path d="M 5800 1700 h 30 v -30 h -30 v 30 " />
	</g>
	<g class="part_476">
		<path d="M 6200 1700 h 30 v -30 h -30 v 30 " />
	</g>
	<g class="part_477">
		<path d="M 6600 1700 h 30 v -30 h -30 v 30 " />
	</g>
	<g class="part_478">
		<path d="M 7000 1700 h 30 v -30 h -30 v 30 " />
	</g>
	<g class="part_479">
		<path d="M 7400 1700 h 30 v -30 h -30 v 30 " />
	</g>
	<g class="part_480">
		<path d="M 7900 1700 h 30 v -30 h -30 v 30 " />
	</g>
	<g class="part_481">
		<path d="M 8300 1700 h 30 v -30 h -30 v 30 " />
	</g>
	<g class="part_482">
		<path d="M 8700 1700 h 30 v -30 h -30 v 30 " />
	</g>
	<g class="part_483">
		<path d="M 9100 1700 h 30 v -30 h -30 v 30 " />
	</g>
	<g class="part_484">
		<path d="M 10200 1700 h 30 v -30 h -30 v 30 " />
	</g>
	<g class="part_485">
		<path d="M 12300 1700 h 30 v -30 h -30 v 30 " />
	</g>
	<g class="part_486">
		<path d="M 13400 1700 h 30 v -30 h -30 v 30 " />
	</g>
	<g class="part_487">
		<path d="M 15400 1700 h 30 v -30 h -30 v 30 " />
	</g>
	<g class="part_488">
		<path d="M 15800 1700 h 30 v -30 h -30 v 30 " />
	</g>
	<g class="part_489">
		<path d="M 17000 1700 h 30 v -30 h -30 v 30 " />
	</g>
	<g class="part_490">
		<path d="M 20100 1700 h 30 v -30 h -30 v 30 " />
	</g>
	<g class="part_491">
		<path d="M 20500 1700 h 30 v -30 h -30 v 30 " />
	</g>
	<g class="part_492">
		<path d="M 21400 1700 h 30 v -30 h -30 v 30 " />
	</g>
	<g class="part_493">
		<path d="M 21800 1700 h 30 v -30 h -30 v 30 " />
	</g>
	<g class="part_494">
		<path d="M 23800 1700 h 30 v -30 h -30 v 30 " />
	</g>
	<g class="part_495">
		<path d="M 27200 1700 h 30 v -30 h -30 v 30 " />
	</g>
	<g class="part_496">
		<path d="M 27600 1700 h 30 v -30 h -30 v 30 " />
	</g>
	<g class="part_497">
		<path d="M 31436 1700 h 30 v -30 h -30 v 30 " />
	</g>
	<g class="part_498">
		<path d="M 700 1600 h 30 v -30 h -30 v 30 " />
	</g>
	<g class="part_499">
		<path d="M 1100 1600 h 30 v -30 h -30 v 30 " />
	</g>
	<g class="part_500">
		<path d="M 10600 1600 h 30 v -30 h -30 v 30 " />
	</g>
	<g class="part_501">
		<path d="M 14200 1600 h 30 v -30 h -30 v 30 " />
	</g>
	<g class="part_502">
		<path d="M 14600 1600 h 30 v -30 h -30 v 30 " />
	</g>
	<g class="part_503">
		<path d="M 16200 1600 h 30 v -30 h -30 v 30 " />
	</g>
	<g class="part_504">
		<path d="M 17400 1600 h 30 v -30 h -30 v 30 " />
	</g>
	<g class="part_505">
		<path d="M 17800 1600 h 30 v -30 h -30 v 30 " />
	</g>
	<g class="part_506">
		<path d="M 20900 1600 h 30 v -30 h -30 v 30 " />
	</g>
	<g class="part_507">
		<path d="M 22200 1600 h 30 v -30 h -30 v 30 " />
	</g>
	<g class="part_508">
		<path d="M 25200 1600 h 30 v -30 h -30 v 30 " />
	</g>
	<g class="part_509">
		<path d="M 25600 1600 h 30 v -30 h -30 v 30 " />
	</g>
	<g class="part_510">
		<path d="M 26000 1600 h 30 v -30 h -30 v 30 " />
	</g>
	<g class="part_511">
		<path d="M 26400 1600 h 30 v -30 h -30 v 30 " />
	</g>
	<g class="part_512">
		<path d="M 28000 1600 h 30 v -30 h -30 v 30 " />
	</g>
	<g class="part_513">
		<path d="M 28400 1600 h 30 v -30 h -30 v 30 " />
	</g>
	<g class="part_514">
		<path d="M 28800 1600 h 30 v -30 h -30 v 30 " />
	</g>
	<g class="part_515">
		<path d="M 29200 1600 h 30 v -30 h -30 v 30 " />
	</g>
	<g class="part_516">
		<path d="M 29600 1600 h 30 v -30 h -30 v 30 " />
	</g>
	<g class="part_517">
		<path d="M -1800 1500 h 30 v -30 h -30 v 30 " />
	</g>
	<g class="part_518">
		<path d="M -1500 1500 h 30 v -30 h -30 v 30 " />
	</g>
	<g class="part_519">
		<path d="M 1500 1500 h 30 v -30 h -30 v 30 " />
	</g>
	<g class="part_520">
		<path d="M 1900 1500 h 30 v -30 h -30 v 30 " />
	</g>
	<g class="part_521">
		<path d="M 2300 1500 h 30 v -30 h -30 v 30 " />
	</g>
	<g class="part_522">
		<path d="M 2700 1500 h 30 v -30 h -30 v 30 " />
	</g>
	<g class="part_523">
		<path d="M 3100 1500 h 30 v -30 h -30 v 30 " />
	</g>
	<g class="part_524">
		<path d="M 4200 1500 h 30 v -30 h -30 v 30 " />
	</g>
	<g class="part_525">
		<path d="M 4700 0 h 30 v -30 h -30 v 30 " />
	</g>
	<g class="part_526">
		<path d="M 12600 0 h 30 v -30 h -30 v 30 " />
	</g>
</svg>
